<?xml version="1.0" encoding="UTF-8" standalone="no"?>
<svg
   xmlns:dc="http://purl.org/dc/elements/1.1/"
   xmlns:cc="http://creativecommons.org/ns#"
   xmlns:rdf="http://www.w3.org/1999/02/22-rdf-syntax-ns#"
   xmlns:svg="http://www.w3.org/2000/svg"
   xmlns="http://www.w3.org/2000/svg"
   xmlns:sodipodi="http://sodipodi.sourceforge.net/DTD/sodipodi-0.dtd"
   xmlns:inkscape="http://www.inkscape.org/namespaces/inkscape"
   version="1.1"
   id="Layer_1"
   x="0px"
   y="0px"
   width="150"
   height="146"
   viewBox="0 0 149.99999 146"
   enable-background="new 0 0 149.167 172.243"
   xml:space="preserve"
   sodipodi:docname="logo2.svg"
   inkscape:version="0.92.4 (5da689c313, 2019-01-14)"><metadata
   id="metadata11"><rdf:RDF><cc:Work
       rdf:about=""><dc:format>image/svg+xml</dc:format><dc:type
         rdf:resource="http://purl.org/dc/dcmitype/StillImage" /><dc:title></dc:title></cc:Work></rdf:RDF></metadata><defs
   id="defs9">
	

		
		
		
	</defs><sodipodi:namedview
   pagecolor="#ffffff"
   bordercolor="#666666"
   borderopacity="1"
   objecttolerance="10"
   gridtolerance="10"
   guidetolerance="10"
   inkscape:pageopacity="0"
   inkscape:pageshadow="2"
   inkscape:window-width="2400"
   inkscape:window-height="1284"
   id="namedview7"
   showgrid="false"
   inkscape:zoom="4.2046469"
   inkscape:cx="61.044574"
   inkscape:cy="56.020836"
   inkscape:window-x="-9"
   inkscape:window-y="-9"
   inkscape:window-maximized="1"
   inkscape:current-layer="Layer_1" />


<g
   id="g4581"
   transform="translate(1.0113514e-7,-0.9513284)"><g
     transform="matrix(0.33910632,0,0,0.33044976,1.3247481,1.771269)"
     id="g59"
     style="fill:#000000"><path
       style="fill:#3a3a3a;fill-opacity:1"
       inkscape:connector-curvature="0"
       d="m 218.794,113.846 c 57.37,0 103.868,46.499 103.868,103.862 0,57.357 -46.498,103.855 -103.868,103.855 -57.358,0 -103.862,-46.498 -103.862,-103.855 0,-57.364 46.504,-103.862 103.862,-103.862 z"
       id="path37" /><path
       style="fill:#3a3a3a;fill-opacity:1"
       inkscape:connector-curvature="0"
       d="m 218.794,0 c -27.26,0 -53.271,5.237 -77.349,14.386 5.26,5.342 9.61,11.56 12.95,18.38 20.219,-7.036 41.839,-11.041 64.411,-11.041 108.667,0 197.062,88.425 197.062,197.069 0,108.644 -88.396,197.086 -197.074,197.086 -108.655,0 -197.057,-88.431 -197.057,-197.074 0,-36.602 10.211,-70.775 27.657,-100.178 C 43.415,114.051 38.143,108.563 33.921,102.31 12.553,136.085 0,175.962 0,218.806 c 0,120.647 98.146,218.806 218.794,218.806 120.659,0 218.817,-98.158 218.817,-218.806 C 437.611,98.158 339.453,0 218.794,0 Z"
       id="path39" /><path
       style="fill:#3a3a3a;fill-opacity:1"
       inkscape:connector-curvature="0"
       d="m 91.759,20.447 c 24.767,0 44.84,20.073 44.84,44.84 0,24.767 -20.073,44.84 -44.84,44.84 -24.761,0 -44.84,-20.073 -44.84,-44.84 0,-24.767 20.079,-44.84 44.84,-44.84 z"
       id="path41" /></g></g></svg>